<svg id="图层_1" data-name="图层 1" xmlns="http://www.w3.org/2000/svg" viewBox="0 0 55 55"><defs><style>.cls-1{fill:#ff8902;}.cls-2{fill:#025afa;}</style></defs><rect class="cls-1" x="20.15" y="19.04" width="5.62" height="5.62"/><path class="cls-1" d="M14,11.67a1,1,0,0,0,.71-.3h0a1,1,0,0,0,0-1.41,1,1,0,0,0-1.42,1.42,1,1,0,0,0,.71.29Zm0,0"/><path class="cls-2" d="M13.94,18.63h2.32V21h-3.9a.88.88,0,1,0,0,1.76h3.9v2.34H13.94a.89.89,0,0,0,0,1.77h2.32v.82a.89.89,0,0,0,.89.89H18v2.32a.89.89,0,0,0,1.77,0V28.55h2.33v3.9a.89.89,0,1,0,1.77,0v-3.9h2.34v2.32a.89.89,0,0,0,1.77,0V28.55h.82a.89.89,0,0,0,.89-.89v-.82H32a.89.89,0,0,0,0-1.77H29.66V22.73h3.9a.88.88,0,0,0,0-1.76h-3.9V18.63H32a.89.89,0,0,0,0-1.77H29.66V16a.89.89,0,0,0-.89-.89H28V12.83a.89.89,0,0,0-1.77,0v2.32H23.84v-3.9a.89.89,0,0,0-1.77,0v3.9H19.74V12.83a.89.89,0,0,0-1.77,0v2.32h-.82a.89.89,0,0,0-.89.89v.82H13.94a.89.89,0,0,0,0,1.77ZM18,16.92h9.86v9.86H18Zm0,0"/><path class="cls-2" d="M48.72,22.41a3,3,0,1,0-2.86-3.95H43.15A18,18,0,0,0,41,13.71h7.76a.93.93,0,0,0,.94-.89s0,0,0-.05V9.45a3,3,0,1,0-1.89,0v2.38H39.55c-.17-.2-.35-.4-.53-.59a18.23,18.23,0,0,0-22.1-3.59.94.94,0,1,0,.9,1.65A16.37,16.37,0,0,1,42,24.23v0a16.3,16.3,0,0,1-4.09,10.85,1,1,0,0,0-.23.63V50.08H32.87V42.14a3,3,0,1,0-1.89,0v7.94H23.4V45.93a3,3,0,1,0-1.89,0v4.15h-4l-.9-3.82a2.37,2.37,0,0,0-2.56-2H11.26A1.26,1.26,0,0,1,10.1,43L9.15,32.59a.94.94,0,0,0-.94-.86H5.58s0-.09.06-.15l3.61-8.21A.77.77,0,0,0,9.33,23,16.27,16.27,0,0,1,12,14.71a.94.94,0,1,0-1.58-1,18.17,18.17,0,0,0-2.94,9.1l-3.54,8a2.19,2.19,0,0,0-.16,2.11,1.93,1.93,0,0,0,1.68.69H7.35l.86,9.53a3.15,3.15,0,0,0,3,3H14c.58,0,.62.1.73.57l1,4A1.53,1.53,0,0,0,17.18,52H38.07a1.5,1.5,0,0,0,1.5-1.5V36.1A18.18,18.18,0,0,0,43.69,27h4.09v2.37a3,3,0,1,0,1.89,0V26s0-.05,0-.07a.93.93,0,0,0-.94-.87H43.87c0-.27,0-.54,0-.81a17.73,17.73,0,0,0-.29-3.93h2.26a3,3,0,0,0,2.86,2.06Zm0-4.13A1.12,1.12,0,1,1,47.6,19.4a1.12,1.12,0,0,1,1.12-1.12ZM47.6,6.58a1.12,1.12,0,1,1,1.12,1.13A1.12,1.12,0,0,1,47.6,6.58ZM22.46,44.19a1.12,1.12,0,1,1,1.12-1.12,1.13,1.13,0,0,1-1.12,1.12Zm9.47-3.79a1.12,1.12,0,1,1,1.12-1.12,1.13,1.13,0,0,1-1.12,1.12Zm16.79-9.31a1.13,1.13,0,1,1-1.12,1.12,1.12,1.12,0,0,1,1.12-1.12Zm0,0"/></svg>